<?xml version="1.0" encoding="UTF-8" standalone="no"?>
<!DOCTYPE svg PUBLIC "-//W3C//DTD SVG 1.1//EN" "http://www.w3.org/Graphics/SVG/1.1/DTD/svg11.dtd">
<svg width="100%" height="100%" viewBox="0 0 667 195" version="1.1" xmlns="http://www.w3.org/2000/svg" xmlns:xlink="http://www.w3.org/1999/xlink" xml:space="preserve" xmlns:serif="http://www.serif.com/" style="fill-rule:evenodd;clip-rule:evenodd;stroke-linejoin:round;stroke-miterlimit:2;">
    <g id="Luca-Logo---Black.svg" serif:id="Luca Logo - Black.svg" transform="matrix(0.43746,0,0,0.43746,333.333,97.2823)">
        <g transform="matrix(1,0,0,1,-761.975,-222.38)">
            <g>
                <g>
                    <path d="M461.99,96.11L463.22,96.11L501.68,192.47L522.43,192.47L560.89,96.48L562.12,96.48L562.12,193.2L592.59,193.2L592.59,44.6L553.85,44.6L512.92,144.44L511.18,144.44L470.26,44.6L431.51,44.6L431.51,193.2L461.99,193.2L461.99,96.11Z" style="fill:white;fill-rule:nonzero;"/>
                    <path d="M686.46,159.39C685.4,162.2 683.85,164.57 681.82,166.5C679.79,168.44 677.35,169.89 674.49,170.85C671.64,171.82 668.49,172.3 665.06,172.3C659.88,172.3 655.41,171.21 651.64,169.03C647.87,166.85 644.95,163.76 642.9,159.74C640.84,155.73 639.82,150.96 639.82,145.45L639.82,145.38L715.71,145.38L715.71,136.89C715.71,127.41 714.38,119.13 711.72,112.04C709.06,104.95 705.35,99.06 700.58,94.37C695.81,89.68 690.25,86.16 683.89,83.81C677.53,81.46 670.67,80.29 663.32,80.29C652.39,80.29 642.87,82.71 634.77,87.55C626.67,92.39 620.39,99.14 615.94,107.79C611.49,116.45 609.26,126.51 609.26,137.97C609.26,149.72 611.48,159.89 615.94,168.48C620.39,177.07 626.74,183.69 634.99,188.36C643.24,193.03 653.09,195.36 664.56,195.36C673.75,195.36 681.86,193.94 688.9,191.12C695.94,188.29 701.69,184.32 706.17,179.22C710.64,174.12 713.61,168.13 715.06,161.26L686.46,159.39ZM651.38,106.6C654.98,104.45 659.13,103.37 663.82,103.37C668.32,103.37 672.27,104.35 675.68,106.31C679.09,108.27 681.76,110.97 683.7,114.4C685.63,117.84 686.6,121.78 686.6,126.23L639.84,126.23C640.03,122.23 641.05,118.56 642.92,115.24C644.96,111.63 647.77,108.75 651.38,106.6Z" style="fill:white;fill-rule:nonzero;"/>
                    <path d="M762.7,128.77C762.75,123.98 763.65,119.88 765.42,116.47C767.18,113.06 769.65,110.46 772.82,108.67C775.99,106.88 779.65,105.98 783.81,105.98C790,105.98 794.86,107.9 798.39,111.75C801.92,115.6 803.66,120.93 803.61,127.75L803.61,193.2L834.52,193.2L834.52,122.24C834.52,113.58 832.92,106.12 829.73,99.86C826.54,93.6 822.06,88.77 816.31,85.38C810.55,81.99 803.81,80.3 796.07,80.3C787.8,80.3 780.76,82.2 774.96,86C769.16,89.8 765.02,94.94 762.55,101.42L761.25,101.42L761.25,81.75L731.79,81.75L731.79,193.2L762.7,193.2L762.7,128.77Z" style="fill:white;fill-rule:nonzero;"/>
                    <path d="M862.15,163.01C862.1,170.31 863.62,176.36 866.72,181.15C869.82,185.94 874.16,189.47 879.75,191.74C885.34,194.01 891.85,195.01 899.3,194.72C903.31,194.57 906.72,194.18 909.53,193.52C912.33,192.87 914.51,192.3 916.06,191.81L911.2,168.81C910.43,168.96 909.31,169.16 907.86,169.43C906.41,169.7 904.96,169.83 903.51,169.83C901.43,169.83 899.6,169.52 898.03,168.89C896.46,168.26 895.24,167.16 894.37,165.59C893.5,164.02 893.06,161.81 893.06,158.95L893.06,104.97L914.03,104.97L914.03,81.75L893.06,81.75L893.06,55.05L862.15,55.05L862.15,81.75L846.91,81.75L846.91,104.97L862.15,104.97L862.15,163.01Z" style="fill:white;fill-rule:nonzero;"/>
                    <path d="M979.23,195.37C990.5,195.37 1000.24,192.96 1008.44,188.15C1016.64,183.34 1022.96,176.61 1027.41,167.98C1031.86,159.35 1034.09,149.32 1034.09,137.9C1034.09,126.39 1031.86,116.31 1027.41,107.68C1022.96,99.05 1016.63,92.32 1008.44,87.51C1000.24,82.7 990.51,80.29 979.23,80.29C967.95,80.29 958.22,82.7 950.02,87.51C941.82,92.32 935.5,99.05 931.05,107.68C926.6,116.31 924.37,126.39 924.37,137.9C924.37,149.32 926.59,159.34 931.05,167.98C935.5,176.61 941.82,183.34 950.02,188.15C958.23,192.97 967.96,195.37 979.23,195.37ZM958.45,120.35C960.22,115.27 962.85,111.26 966.36,108.31C969.87,105.36 974.21,103.88 979.39,103.88C984.51,103.88 988.8,105.36 992.23,108.31C995.66,111.26 998.26,115.28 1000.03,120.35C1001.79,125.43 1002.68,131.21 1002.68,137.69C1002.68,144.17 1001.8,149.95 1000.03,155.03C998.26,160.11 995.66,164.11 992.23,167.04C988.79,169.97 984.51,171.43 979.39,171.43C974.21,171.43 969.87,169.97 966.36,167.04C962.85,164.11 960.22,160.11 958.45,155.03C956.68,149.95 955.8,144.17 955.8,137.69C955.8,131.21 956.68,125.43 958.45,120.35Z" style="fill:white;fill-rule:nonzero;"/>
                    <path d="M1081.08,130.14C1081.08,125.59 1082.11,121.58 1084.16,118.1C1086.21,114.62 1089.02,111.9 1092.58,109.94C1096.14,107.98 1100.19,107 1104.73,107C1106.86,107 1109.2,107.17 1111.77,107.51C1114.33,107.85 1116.34,108.24 1117.79,108.67L1117.79,81.24C1116.43,80.9 1114.86,80.64 1113.07,80.44C1111.28,80.25 1109.61,80.15 1108.06,80.15C1101.82,80.15 1096.31,81.93 1091.52,85.48C1086.73,89.04 1083.32,94.27 1081.29,101.19L1080.13,101.19L1080.13,81.75L1050.16,81.75L1050.16,193.2L1081.07,193.2L1081.07,130.14L1081.08,130.14Z" style="fill:white;fill-rule:nonzero;"/>
                    <path d="M1216.89,139.21C1211.57,134.28 1203.49,130.7 1192.65,128.47L1172.48,124.41C1167.3,123.3 1163.65,121.82 1161.52,119.98C1159.39,118.14 1158.33,115.89 1158.33,113.23C1158.33,109.89 1159.97,107.22 1163.26,105.21C1166.55,103.2 1170.59,102.2 1175.38,102.2C1178.96,102.2 1182.04,102.79 1184.63,103.98C1187.22,105.17 1189.31,106.74 1190.91,108.7C1192.51,110.66 1193.54,112.85 1194.03,115.27L1222.33,113.53C1220.97,103.28 1216.25,95.17 1208.14,89.22C1200.04,83.27 1188.95,80.3 1174.87,80.3C1165.34,80.3 1157.03,81.7 1149.95,84.51C1142.86,87.32 1137.37,91.31 1133.48,96.48C1129.59,101.66 1127.64,107.82 1127.64,114.98C1127.64,123.3 1130.29,130.14 1135.59,135.51C1140.89,140.88 1148.98,144.65 1159.86,146.83L1179.16,150.68C1184,151.65 1187.58,153.04 1189.9,154.85C1192.22,156.66 1193.41,158.97 1193.45,161.78C1193.4,165.12 1191.72,167.84 1188.41,169.94C1185.1,172.04 1180.73,173.1 1175.31,173.1C1169.79,173.1 1165.27,171.93 1161.74,169.58C1158.21,167.23 1155.98,163.81 1155.06,159.31L1124.66,160.91C1126.16,171.55 1131.27,179.96 1140.01,186.12C1148.74,192.29 1160.48,195.37 1175.24,195.37C1184.92,195.37 1193.46,193.83 1200.89,190.76C1208.31,187.69 1214.17,183.4 1218.45,177.88C1222.73,172.37 1224.87,165.96 1224.87,158.65C1224.87,150.63 1222.21,144.15 1216.89,139.21Z" style="fill:white;fill-rule:nonzero;"/>
                    <path d="M1325.23,85.34C1319.45,81.98 1312.69,80.3 1304.95,80.3C1296.48,80.3 1289.45,82.18 1283.83,85.92C1278.22,89.67 1274.15,94.83 1271.64,101.41L1270.33,101.41L1270.33,44.6L1240.29,44.6L1240.29,193.2L1271.2,193.2L1271.2,128.77C1271.25,123.98 1272.18,119.88 1273.99,116.47C1275.8,113.06 1278.32,110.46 1281.54,108.67C1284.76,106.88 1288.47,105.98 1292.68,105.98C1298.97,105.98 1303.87,107.89 1307.37,111.71C1310.88,115.53 1312.61,120.88 1312.56,127.75L1312.56,193.2L1343.47,193.2L1343.47,122.24C1343.52,113.53 1341.93,106.05 1338.72,99.78C1335.5,93.52 1331,88.7 1325.23,85.34Z" style="fill:white;fill-rule:nonzero;"/>
                    <rect x="1363.77" y="81.75" width="30.91" height="111.45" style="fill:white;"/>
                    <path d="M1379.29,36.11C1374.74,36.11 1370.82,37.65 1367.54,40.72C1364.25,43.79 1362.6,47.46 1362.6,51.71C1362.6,56.02 1364.24,59.7 1367.54,62.78C1370.83,65.85 1374.77,67.39 1379.37,67.39C1383.97,67.39 1387.9,65.85 1391.16,62.78C1394.43,59.71 1396.06,56.02 1396.06,51.71C1396.06,47.45 1394.43,43.79 1391.16,40.72C1387.89,37.65 1383.94,36.11 1379.29,36.11Z" style="fill:white;fill-rule:nonzero;"/>
                    <path d="M1517.78,105.73C1513.67,97.24 1508.18,90.88 1501.31,86.65C1494.44,82.42 1486.94,80.3 1478.82,80.3C1472.58,80.3 1467.37,81.35 1463.18,83.46C1459,85.56 1455.61,88.18 1453.02,91.3C1450.43,94.42 1448.46,97.48 1447.11,100.48L1445.73,100.48L1445.73,81.75L1415.26,81.75L1415.26,234.99L1446.17,234.99L1446.17,175.35L1447.11,175.35C1448.51,178.45 1450.54,181.51 1453.2,184.53C1455.86,187.55 1459.28,190.06 1463.47,192.04C1467.65,194.02 1472.75,195.02 1478.74,195.02C1487.2,195.02 1494.86,192.83 1501.7,188.45C1508.54,184.07 1513.96,177.62 1517.95,169.08C1521.94,160.54 1523.94,150.06 1523.94,137.63C1523.95,124.85 1521.89,114.22 1517.78,105.73ZM1489.66,154.63C1487.85,159.59 1485.2,163.46 1481.71,166.24C1478.23,169.02 1473.97,170.41 1468.94,170.41C1463.96,170.41 1459.73,169.04 1456.24,166.31C1452.76,163.58 1450.1,159.74 1448.26,154.81C1446.42,149.88 1445.5,144.1 1445.5,137.47C1445.5,130.84 1446.42,125.09 1448.26,120.2C1450.1,115.31 1452.75,111.54 1456.21,108.88C1459.67,106.22 1463.91,104.89 1468.94,104.89C1474.02,104.89 1478.3,106.27 1481.78,109.03C1485.26,111.79 1487.9,115.61 1489.69,120.49C1491.48,125.38 1492.38,131.04 1492.38,137.47C1492.39,143.96 1491.48,149.68 1489.66,154.63Z" style="fill:white;fill-rule:nonzero;"/>
                    <path d="M512.2,261.28C505.04,256.59 496.77,254.24 487.38,254.24C480.12,254.24 474.38,255.44 470.15,257.83C465.92,260.22 462.68,262.93 460.43,265.96C458.18,268.98 456.43,271.46 455.17,273.4L453.72,273.4L453.72,218.55L436.6,218.55L436.6,367.15L453.14,367.15L453.14,350.03L455.17,350.03C456.43,352.06 458.22,354.61 460.54,357.68C462.86,360.75 466.17,363.48 470.48,365.88C474.78,368.27 480.52,369.47 487.68,369.47C496.97,369.47 505.17,367.11 512.28,362.4C519.39,357.68 524.95,351.01 528.97,342.37C532.99,333.74 534.99,323.52 534.99,311.71C534.99,300 532.98,289.85 528.97,281.24C524.94,272.63 519.36,265.98 512.2,261.28ZM514.19,333.01C511.75,339.47 508.12,344.6 503.31,348.39C498.5,352.19 492.51,354.09 485.35,354.09C478.48,354.09 472.68,352.29 467.94,348.68C463.2,345.08 459.6,340.07 457.13,333.66C454.66,327.25 453.43,319.84 453.43,311.42C453.43,303.1 454.64,295.81 457.06,289.54C459.48,283.28 463.06,278.39 467.8,274.88C472.54,271.37 478.39,269.62 485.36,269.62C492.62,269.62 498.65,271.47 503.46,275.17C508.27,278.87 511.88,283.88 514.27,290.19C516.66,296.5 517.86,303.58 517.86,311.41C517.86,319.35 516.64,326.55 514.19,333.01Z" style="fill:white;fill-rule:nonzero;"/>
                    <path d="M594.74,344.51L593.58,344.51L562.82,255.7L544.24,255.7L585.45,367.73L582.26,376.44C579.21,384.76 575.61,389.75 571.45,391.42C567.29,393.09 562.09,393.13 555.85,391.53L551.5,406.62C552.37,407.06 553.94,407.5 556.22,407.96C558.49,408.42 561.08,408.65 563.98,408.65C569.16,408.65 573.81,407.73 577.95,405.89C582.09,404.05 585.73,401.26 588.87,397.51C592.01,393.76 594.65,389.06 596.78,383.4L644.23,255.99L625.51,255.7L594.74,344.51Z" style="fill:white;fill-rule:nonzero;"/>
                    <path d="M744.82,218.55L713.4,218.55L713.4,367.15L808.53,367.15L808.53,341.24L744.82,341.24L744.82,218.55Z" style="fill:white;fill-rule:nonzero;"/>
                    <path d="M896.15,319.69C896.2,324.67 895.22,328.86 893.21,332.24C891.2,335.63 888.58,338.18 885.34,339.89C882.1,341.61 878.62,342.47 874.89,342.47C869.04,342.47 864.37,340.56 860.89,336.74C857.41,332.92 855.64,327.72 855.59,321.14L855.59,255.7L824.68,255.7L824.68,326.66C824.73,335.37 826.34,342.84 829.51,349.08C832.68,355.32 837.09,360.13 842.75,363.52C848.41,366.91 854.96,368.6 862.41,368.6C870.78,368.6 877.88,366.62 883.71,362.65C889.54,358.68 893.71,353.44 896.23,346.9L897.39,346.9L897.39,367.14L927.07,367.14L927.07,255.7L896.16,255.7L896.16,319.69L896.15,319.69Z" style="fill:white;fill-rule:nonzero;"/>
                    <path d="M985.85,282.22C989.4,279.63 993.58,278.34 998.37,278.34C1004.03,278.34 1008.61,280.05 1012.12,283.46C1015.63,286.87 1017.79,291.36 1018.61,296.92L1047.78,296.92C1047.34,288.31 1045,280.81 1040.74,274.43C1036.48,268.04 1030.7,263.09 1023.4,259.56C1016.1,256.03 1007.58,254.26 997.86,254.26C986.59,254.26 976.87,256.69 968.69,261.55C960.51,266.41 954.22,273.16 949.79,281.79C945.36,290.42 943.15,300.45 943.15,311.87C943.15,323.14 945.34,333.11 949.72,341.76C954.1,350.42 960.39,357.18 968.59,362.04C976.79,366.9 986.6,369.33 998.01,369.33C1007.92,369.33 1016.51,367.52 1023.77,363.89C1031.03,360.26 1036.72,355.22 1040.86,348.76C1044.99,342.3 1047.31,334.82 1047.79,326.3L1018.62,326.3C1018.04,330.22 1016.82,333.57 1014.96,336.35C1013.1,339.13 1010.75,341.25 1007.92,342.7C1005.09,344.15 1001.91,344.88 998.38,344.88C993.59,344.88 989.41,343.57 985.83,340.96C982.25,338.35 979.48,334.55 977.52,329.57C975.56,324.59 974.58,318.54 974.58,311.43C974.58,304.42 975.57,298.44 977.55,293.51C979.52,288.57 982.29,284.8 985.85,282.22Z" style="fill:white;fill-rule:nonzero;"/>
                    <path d="M1143.78,263.17C1139.35,260.12 1134.3,257.87 1128.62,256.42C1122.93,254.97 1117,254.24 1110.81,254.24C1101.91,254.24 1094.09,255.58 1087.34,258.27C1080.59,260.95 1075.09,264.78 1070.83,269.73C1066.57,274.69 1063.72,280.55 1062.27,287.33L1090.86,289.65C1091.92,285.97 1094.1,282.91 1097.39,280.47C1100.68,278.03 1105.1,276.81 1110.67,276.81C1115.94,276.81 1120.02,278.07 1122.9,280.58C1125.78,283.1 1127.22,286.65 1127.22,291.25L1127.22,291.69C1127.22,294.06 1126.33,295.85 1124.54,297.06C1122.75,298.27 1119.87,299.18 1115.91,299.78C1111.94,300.39 1106.72,301.03 1100.24,301.7C1094.73,302.23 1089.47,303.15 1084.46,304.46C1079.45,305.77 1074.99,307.7 1071.07,310.26C1067.15,312.82 1064.06,316.21 1061.78,320.42C1059.5,324.63 1058.37,329.83 1058.37,336.02C1058.37,343.37 1059.98,349.5 1063.19,354.41C1066.41,359.32 1070.8,363.02 1076.36,365.51C1081.92,368 1088.26,369.25 1095.37,369.25C1100.89,369.25 1105.75,368.51 1109.95,367.04C1114.16,365.56 1117.76,363.51 1120.76,360.87C1123.76,358.23 1126.15,355.17 1127.94,351.69L1128.81,351.69L1128.81,367.15L1158.12,367.15L1158.12,291.98C1158.12,285.35 1156.84,279.66 1154.27,274.89C1151.7,270.12 1148.21,266.22 1143.78,263.17ZM1127.42,327.31C1127.42,331.23 1126.43,334.74 1124.44,337.83C1122.46,340.93 1119.73,343.38 1116.24,345.19C1112.76,347 1108.74,347.91 1104.2,347.91C1099.46,347.91 1095.55,346.81 1092.48,344.61C1089.41,342.41 1087.87,339.2 1087.87,335C1087.87,332.1 1088.62,329.67 1090.12,327.71C1091.62,325.75 1093.72,324.19 1096.43,323.03C1099.14,321.87 1102.31,321.02 1105.93,320.49C1107.62,320.25 1109.51,319.97 1111.59,319.66C1113.67,319.35 1115.75,318.98 1117.83,318.57C1119.91,318.16 1121.78,317.7 1123.45,317.19C1125.12,316.68 1126.44,316.11 1127.41,315.48L1127.41,327.31L1127.42,327.31Z" style="fill:white;fill-rule:nonzero;"/>
                </g>
                <g transform="matrix(0.998661,0,0,1,0.0217956,0)">
                    <g>
                        <path d="M181.74,444.73C181.74,444.74 181.74,444.74 181.74,444.73C181.73,444.77 181.74,444.76 181.74,444.73Z" style="fill:white;fill-rule:nonzero;"/>
                        <g transform="matrix(1,0,0,0.985145,0,0.226173)">
                            <path d="M331.22,211.75C323.28,174.24 313.387,145.662 301.057,120.732C322.077,91.692 283.5,82.94 283.5,82.94C286.99,61.08 268.28,63.94 268.28,63.94C276.93,42.29 251.16,41.49 251.16,41.49C241.79,21.71 220.61,34.04 220.61,34.04C220.61,34.04 218.05,27.05 208.02,22.07C198,17.09 185.33,22.31 185.33,22.31C183.17,16.58 173.86,16.46 173.86,16.46C152.25,9.79 146.18,32.32 146.18,32.32C123.29,18.97 115.37,39.29 115.37,39.29C81.49,30.62 78.55,57.53 78.55,57.53C54.63,60.06 51.65,83.09 51.65,83.09C33.06,90.75 38.24,112.72 38.24,112.72C24,117.35 23.77,124.28 23.77,124.28C6.91,138.3 22.84,174.61 29.42,187.77C29.78,206.75 33.2,224.152 40.41,247.312C20.93,258.052 20.29,282.39 31.72,300.43C39.99,313.42 56.57,331.63 71.92,335.09C73.82,335.53 75.74,335.62 77.59,335.37C87.39,351.36 98.65,364.06 110.07,374.12C110.07,374.12 110.08,374.12 110.08,374.13C110.44,374.64 110.8,375.16 111.16,375.67C113.05,378.41 116,382.33 118.02,385.02C120.38,388.09 122.88,391.39 126.13,394.28C129.01,396.53 131.83,399.33 135.84,399.21C135.96,399.18 136.06,399.26 137.05,398.97C137.78,398.74 138.42,398.25 138.79,397.86C139.31,397.29 139.59,396.8 139.79,396.28C146.99,404 154.6,411.53 163.41,417.39C173.55,424.39 185.32,428.93 197.92,429.39C200.97,429.54 204.27,429.31 207.29,428.96C208.61,428.79 210.46,428.69 212.09,427.16C213.12,426.24 213.73,425.08 214,423.84C220.18,424.91 226.48,425.38 232.71,425.25C244.76,425.13 256.66,422.91 268.04,419.05C273.33,417.37 279.66,414.53 281.79,408.59C282.36,406.86 281.83,405.09 280.74,403.77C287.09,400.85 293.07,397.18 298.58,392.88C304.52,388.24 308.22,383.74 311.8,377.12C318.86,364.04 324.11,349.98 327.32,335.46C327.37,335.24 327.4,335 327.42,334.76C327.48,333.82 327.61,332.9 327.92,332.01C339.57,298.03 340.74,256.74 331.22,211.75Z" style="fill:white;fill-rule:nonzero;"/>
                        </g>
                    </g>
                </g>
                <g transform="matrix(0.934791,0,0,0.934791,11.2481,11.0551)">
                    <g>
                        <path d="M181.74,444.73C181.74,444.74 181.74,444.74 181.74,444.73C181.73,444.77 181.74,444.76 181.74,444.73Z" style="fill:rgb(0,111,230);fill-rule:nonzero;"/>
                        <path d="M317.68,219.07C316.54,218.54 315.38,218.07 314.21,217.64C314.63,211.72 314.29,205.76 313.43,199.89C310.25,180.34 302.38,150.18 277.32,151.91C266.29,152.44 259.23,162.73 256.14,172.19C253.46,180.27 252.48,188.77 252.81,197.23C252.75,197.17 252.69,197.12 252.64,197.06C251.1,195.41 248.5,197.46 249.67,199.34C250.15,200.11 250.64,200.86 251.15,201.61C251.88,202.68 252.63,203.73 253.41,204.76C256.65,209.06 260.26,213.06 263.89,217.04C264.25,217.44 264.62,217.83 264.98,218.23C266.51,219.91 268.03,221.58 269.52,223.28C271.31,225.32 273.05,227.39 274.69,229.53C279.3,235.35 283.1,241.71 286.18,248.44C289.09,254.64 289.97,259.29 284.33,264.1C280.79,267.21 276.3,269.55 271.93,271.63C265.05,274.88 258.09,277.82 250.86,280.24C250.72,280.29 250.59,280.33 250.45,280.38C249.66,280.65 249.15,281.44 249.27,282.29C249.41,283.25 250.3,283.91 251.25,283.77C253.89,283.39 256.5,282.89 259.11,282.32C270.91,279.37 289.87,274.93 296.09,263.51C303.03,250.88 290.02,232.65 279.87,222.04C291.96,221.33 304.07,222.99 316.14,224.46C317.33,224.6 318.52,223.98 319.05,222.83C319.7,221.41 319.1,219.73 317.68,219.07ZM287.74,188.47C286.68,188.42 285.69,188.07 284.85,187.5C283.74,190.4 283.04,193.68 282.87,197.17C282.66,201.58 283.5,205.98 284.81,210.17C285.24,211.54 285.66,212.9 286.06,214.28C281.85,214.53 277.66,215.1 273.54,215.97C269.53,212.35 265.45,208.96 261.52,205.5C261.33,204.39 261.18,203.29 261.05,202.18C259.58,189.22 260.99,168.42 272.46,160.46C275.92,158.35 280.31,158.16 284.19,158.98C288.39,159.93 291.85,162.48 294.73,165.81C297.14,168.67 299.27,172.19 301.13,176.12C300.37,175.89 299.6,175.76 298.8,175.72C296.74,175.62 294.75,176.15 292.91,177.2C293.81,178.47 294.32,180.09 294.23,181.85C294.05,185.67 291.14,188.64 287.74,188.47ZM299.7,198.48C297.63,198.38 296.04,196.41 296.15,194.08C296.26,191.75 298.03,189.95 300.1,190.05C302.18,190.15 303.77,192.11 303.65,194.44C303.55,196.77 301.78,198.58 299.7,198.48Z" style="fill:rgb(0,111,230);fill-rule:nonzero;"/>
                        <path d="M331.22,211.75C323.28,174.24 313.04,142.73 300.71,117.8C321.73,88.76 283.5,82.94 283.5,82.94C286.99,61.08 268.28,63.94 268.28,63.94C276.93,42.29 251.16,41.49 251.16,41.49C241.79,21.71 220.61,34.04 220.61,34.04C220.61,34.04 218.05,27.05 208.02,22.07C198,17.09 185.33,22.31 185.33,22.31C183.17,16.58 173.86,16.46 173.86,16.46C152.25,9.79 146.18,32.32 146.18,32.32C123.29,18.97 115.37,39.29 115.37,39.29C81.49,30.62 78.55,57.53 78.55,57.53C54.63,60.06 51.65,83.09 51.65,83.09C33.06,90.75 38.24,112.72 38.24,112.72C24,117.35 23.77,124.28 23.77,124.28C6.91,138.3 22.84,174.61 29.42,187.77C29.78,206.75 33.54,227.74 40.75,250.9C21.27,261.64 20.29,282.39 31.72,300.43C39.99,313.42 56.57,331.63 71.92,335.09C73.82,335.53 75.74,335.62 77.59,335.37C87.39,351.36 98.65,364.06 110.07,374.12C110.07,374.12 110.08,374.12 110.08,374.13C110.44,374.64 110.8,375.16 111.16,375.67C113.05,378.41 116,382.33 118.02,385.02C120.38,388.09 122.88,391.39 126.13,394.28C129.01,396.53 131.83,399.33 135.84,399.21C135.96,399.18 136.06,399.26 137.05,398.97C137.78,398.74 138.42,398.25 138.79,397.86C139.31,397.29 139.59,396.8 139.79,396.28C146.99,404 154.6,411.53 163.41,417.39C173.55,424.39 185.32,428.93 197.92,429.39C200.97,429.54 204.27,429.31 207.29,428.96C208.61,428.79 210.46,428.69 212.09,427.16C213.12,426.24 213.73,425.08 214,423.84C220.18,424.91 226.48,425.38 232.71,425.25C244.76,425.13 256.66,422.91 268.04,419.05C273.33,417.37 279.66,414.53 281.79,408.59C282.36,406.86 281.83,405.09 280.74,403.77C287.09,400.85 293.07,397.18 298.58,392.88C304.52,388.24 308.22,383.74 311.8,377.12C318.86,364.04 324.11,349.98 327.32,335.46C327.37,335.24 327.4,335 327.42,334.76C327.48,333.82 327.61,332.9 327.92,332.01C339.57,298.03 340.74,256.74 331.22,211.75ZM313.68,333.39C313.26,336.84 310.73,339.6 308.62,342.38C306.47,345.21 304.66,348.3 302.9,351.41C299.95,356.61 297.12,361.89 293.02,366.22C286.77,372.82 278.06,376.62 269.2,378.66C249.16,383.28 225.73,379.1 210.86,364.15C203.65,356.9 198.76,347.38 197.09,337.29C195.3,326.42 195.66,314.61 200.99,304.96C201.81,303.47 204.27,300.31 205.8,299.55C208.34,298.29 212.21,300.48 214.8,301.65C237.57,311.96 263,315.63 287.35,310C292.64,308.77 298.73,307.32 303.08,310.57C304.79,311.85 305.97,313.71 307.03,315.57C308.97,318.94 310.68,322.44 312.16,326.03C313.12,328.38 313.99,330.87 313.68,333.39ZM321.34,310.38C316.37,295.04 301.6,283.37 285.52,282.09C274.52,281.21 263.53,284.78 252.52,283.97C242.77,283.25 233.49,279.14 223.72,278.7C209.98,278.08 196.16,285.45 189.01,297.2C183.35,306.5 181.31,318.55 172.55,325.03C146.23,312.18 123.53,291.99 107.7,267.35C106.31,265.18 104.81,262.85 102.43,261.87C100.44,261.05 98.2,261.33 96.07,261.63C90.34,262.42 84.61,263.21 78.88,264C77.67,264.17 76.31,264.43 75.67,265.47C75.18,266.26 75.28,267.26 75.42,268.18C76.85,277.25 81.32,285.5 84.53,294.1C87.74,302.7 89.65,312.51 85.94,320.9C84.83,323.41 83.11,325.82 80.57,326.88C76.48,328.58 71.89,326.29 68.25,323.77C54.56,314.32 43.82,300.7 37.72,285.23C36.84,283.01 35.51,280.36 35.54,277.93C35.57,275.78 36.45,273.21 37.07,271.17C38.58,266.15 42.04,261.7 46.65,259.18C52.97,255.72 61.19,256.02 67.23,259.95C69.24,261.26 72.33,262.75 73.57,260.7C74.2,259.67 73.79,258.33 73.27,257.25C69.61,249.6 60.42,245.06 52.12,246.78C47.53,232.42 44.3,217.64 42.48,202.68C43,203.82 44.28,204.57 45.53,204.48C46.98,203.54 47.31,201.26 46.18,199.95C44.83,199.21 42.91,199.92 42.36,201.35C42.09,197.01 41.81,192.67 41.54,188.32C43.86,187.72 46.19,187.13 48.51,186.53C46.35,187.44 47.41,191.5 49.74,191.24C52.06,190.98 52.2,186.78 49.89,186.38C64.64,184.61 79.38,182.84 94.13,181.06C93.22,170.05 92.31,158.87 94.4,148.02C96.49,137.17 101.98,126.49 111.33,120.6C116.89,117.09 123.41,115.49 129.82,114.04C146.97,110.16 164.86,106.99 182.04,110.73C193.33,113.19 203.81,118.54 215.05,121.19C226.29,123.84 239.37,123.26 247.77,115.34C250.43,112.83 252.5,109.7 255.44,107.53C262.98,101.97 274.22,104.55 281.17,110.83C288.12,117.11 291.8,126.13 295.24,134.85C286.86,130.99 277.52,129.25 268.32,129.83C265.56,130 262.67,130.43 260.45,132.07C258.22,133.71 256.92,136.91 258.22,139.35C260.25,143.18 265.86,142.2 270.1,141.29C277.52,139.71 285.36,140.19 292.53,142.65C295.26,143.59 297.99,144.88 299.84,147.09C301.44,149.01 302.25,151.46 303.01,153.84C319.25,204.48 332.72,258.45 321.34,310.38Z" style="fill:rgb(0,111,230);fill-rule:nonzero;"/>
                        <path d="M310.7,331.45C309.02,329.98 306.21,327.53 304.14,323.78C301.92,320.1 301.18,316.39 300.74,314.17C300.42,312.54 300.26,311.75 299.65,311.53C299.31,311.36 298.79,311.39 298.18,312.3C297.26,313.66 296.11,316.89 296.33,320.62C285.91,321.65 254.7,323.5 211.99,314.97C211.98,309.77 209.2,305.57 207.59,304.2C206.75,303.49 206.25,303.6 205.96,303.86C205.44,304.24 205.5,305.04 205.63,306.7C205.8,308.95 206.09,312.72 204.96,316.87C203.98,321.04 201.94,324.16 200.72,326.02C199.82,327.4 199.39,328.06 199.68,328.65C199.73,328.76 199.8,328.87 199.9,328.95C200.04,329.07 200.47,329.44 202.09,328.91C204.17,328.24 207.55,326.29 209.78,322.72C218.02,333.69 234.92,350.25 261.79,350.18C288.17,350.11 296.43,337.2 298.99,328.34C302.27,333.04 307.46,334.5 310.16,334.6C311.86,334.66 312.17,334.2 312.28,334.05C312.35,333.94 312.39,333.82 312.41,333.69C312.53,333.05 311.95,332.53 310.7,331.45ZM280.39,338.38C275.71,341.67 264.57,344.21 253.63,342.45C244.05,340.91 234.44,335.94 229.88,333.28C228.61,332.54 229.17,330.27 230.62,330.23C236.15,330.11 241.43,330.22 246.36,330.48C251.84,330.79 253.88,335.12 254.44,336.45C255.01,337.78 256.37,338.05 256.98,337.22C257.6,336.4 260.97,331.69 265.61,332.36C272,333.28 276.96,334.29 280.02,334.99C281.43,335.31 281.66,337.48 280.39,338.38Z" style="fill:rgb(0,111,230);fill-rule:nonzero;"/>
                        <path d="M71.45,311.06C71.42,310.87 71.33,310.68 71.18,310.5C71.17,310.48 71.15,310.45 71.13,310.43C70.27,309.35 69.43,308.26 68.61,307.16L68.6,307.15C68.53,307.05 68.46,306.96 68.39,306.86C67.88,306.17 67.37,305.47 66.88,304.76C65.31,302.51 63.83,300.2 62.5,297.81C62.3,297.45 62.1,297.09 61.91,296.73C61.6,296.15 61.3,295.57 61.01,294.99C60.83,294.64 60.66,294.28 60.49,293.92C60.23,293.38 59.99,292.84 59.75,292.29C59.51,291.75 59.27,291.19 59.05,290.64C57.64,287.16 56.67,283.56 56.16,279.92C56.09,279.48 56.04,279.04 55.99,278.6C55.94,278.16 55.9,277.72 55.88,277.28C55.85,276.99 55.83,276.69 55.83,276.4C55.8,276.06 55.79,275.73 55.79,275.39C55.78,275.38 55.78,275.37 55.79,275.36C55.78,275.35 55.79,275.34 55.79,275.34C55.78,275.33 55.78,275.33 55.78,275.32L55.78,274.85C55.76,273.73 55.79,272.61 55.84,271.48C56.19,271.27 56.55,271.08 56.92,270.91C57.89,270.36 58.95,270.01 60.02,269.62C60.41,269.48 60.81,269.33 61.2,269.16C62.41,268.7 63.49,267.81 63.64,266.39C63.87,262.99 60.51,262.47 57.46,262.75C56.21,262.86 55.02,263.11 54.14,263.35C53.27,263.59 52.42,263.91 51.61,264.3C49.7,265.23 47.99,266.55 46.58,268.14C43.89,271.17 42.28,275.17 42.41,279.24C42.38,281.57 45.52,282.84 47.11,281.07C47.66,280.51 48.24,279.94 48.63,279.19C48.7,279.07 48.77,278.96 48.84,278.85C48.87,279.49 48.92,280.13 48.99,280.76C50.13,291.18 55.49,300.86 63.26,307.8L63.26,307.81C65.2,309.54 67.28,311.11 69.49,312.47C70.55,313.1 71.65,312.08 71.46,311.08C71.47,311.08 71.47,311.07 71.45,311.06Z" style="fill:rgb(0,111,230);fill-rule:nonzero;"/>
                        <path d="M80.06,254.69C78.61,254.85 77.6,256.59 77.78,258.06C77.96,259.47 79.22,259.97 80.64,259.81C82.04,259.65 83.6,258.8 83.46,257.41C83.33,255.97 81.5,254.53 80.06,254.69Z" style="fill:rgb(0,111,230);fill-rule:nonzero;"/>
                        <path d="M56.65,198.45C55.31,198.61 54.02,199.34 54.15,200.67C54.28,202.07 55.68,202.52 57.1,202.38C58.53,202.23 59.62,201.53 59.47,200.14C59.3,198.75 58.05,198.28 56.65,198.45Z" style="fill:rgb(0,111,230);fill-rule:nonzero;"/>
                        <path d="M73.53,245.09C72.15,245.24 71.34,246.01 71.51,247.37C71.67,248.68 72.61,249.61 73.94,249.51C75.31,249.41 76.6,248.24 76.47,246.85C76.34,245.44 74.93,244.94 73.53,245.09Z" style="fill:rgb(0,111,230);fill-rule:nonzero;"/>
                        <path d="M64.19,187.65C64.09,186.27 62.74,184.79 61.34,184.94C60.01,185.09 59.09,186.77 59.22,188.08C59.36,189.4 60.51,190.13 61.85,190.01C63.18,189.9 64.28,188.98 64.19,187.65Z" style="fill:rgb(0,111,230);fill-rule:nonzero;"/>
                        <path d="M54.5,212.84C54.4,211.48 53.2,209.98 51.82,210.13C50.47,210.27 49.77,211.87 49.89,213.23C50.01,214.58 50.95,215.45 52.32,215.33C53.71,215.19 54.59,214.18 54.5,212.84Z" style="fill:rgb(0,111,230);fill-rule:nonzero;"/>
                        <path d="M97.5,242.29C96.16,242.39 95.11,243.47 95.22,244.83C95.33,246.27 96.51,246.88 97.91,246.74C99.27,246.6 99.95,245.85 99.82,244.47C99.69,243.11 98.85,242.19 97.5,242.29Z" style="fill:rgb(0,111,230);fill-rule:nonzero;"/>
                        <path d="M95.18,253.28C93.8,253.44 92.49,254.13 92.63,255.52C92.77,256.86 94.26,257.29 95.59,257.16C97.01,257.02 98.26,256.33 98.09,254.88C97.92,253.49 96.58,253.12 95.18,253.28Z" style="fill:rgb(0,111,230);fill-rule:nonzero;"/>
                        <path d="M68.61,196.48C67.25,196.61 66.82,198.03 66.96,199.38C67.1,200.74 67.74,201.59 69.09,201.46C70.45,201.32 71.73,200.29 71.61,198.94C71.49,197.6 69.97,196.36 68.61,196.48Z" style="fill:rgb(0,111,230);fill-rule:nonzero;"/>
                        <path d="M67.03,211.48C66.89,210.16 65.21,209.59 63.85,209.73C62.54,209.87 61.66,210.64 61.77,211.98C61.88,213.35 62.94,214.17 64.31,214.04C65.69,213.9 67.17,212.83 67.03,211.48Z" style="fill:rgb(0,111,230);fill-rule:nonzero;"/>
                        <path d="M90.17,227.91C88.83,228.02 87.5,229.56 87.64,230.93C87.77,232.3 89.3,233.06 90.67,232.9C92.01,232.74 93.34,231.75 93.23,230.43C93.11,229.08 91.51,227.8 90.17,227.91Z" style="fill:rgb(0,111,230);fill-rule:nonzero;"/>
                        <path d="M85.5,243.75C84.09,243.9 83.7,244.7 83.87,246.1C84.03,247.46 84.75,248.66 86.07,248.48C87.38,248.3 88.7,246.8 88.51,245.49C88.33,244.2 86.82,243.62 85.5,243.75Z" style="fill:rgb(0,111,230);fill-rule:nonzero;"/>
                        <path d="M73.36,210.86C73.49,212.17 75.04,213.24 76.34,213.11C77.64,212.98 78.52,211.66 78.38,210.33C78.24,209 77.17,208.59 75.88,208.73C74.57,208.88 73.22,209.53 73.36,210.86Z" style="fill:rgb(0,111,230);fill-rule:nonzero;"/>
                        <path d="M55.05,225.18C56.37,225.03 56.93,223.91 56.78,222.59C56.63,221.26 55.82,220.11 54.46,220.27C53.11,220.42 52.07,221.77 52.23,223.14C52.38,224.47 53.7,225.33 55.05,225.18Z" style="fill:rgb(0,111,230);fill-rule:nonzero;"/>
                        <path d="M55.47,232.61C54.17,232.76 52.97,233.65 53.12,234.95C53.27,236.25 54.66,237.09 55.97,236.94C57.3,236.79 57.93,235.76 57.78,234.41C57.64,233.07 56.8,232.45 55.47,232.61Z" style="fill:rgb(0,111,230);fill-rule:nonzero;"/>
                        <path d="M99.89,232.39C98.54,232.5 97.29,233.59 97.43,234.89C97.56,236.14 98.98,237.25 100.24,237.15C101.58,237.04 102.36,235.73 102.23,234.41C102.11,233.16 101.17,232.29 99.89,232.39Z" style="fill:rgb(0,111,230);fill-rule:nonzero;"/>
                        <path d="M78.78,236.77C80.05,236.63 80.73,235.6 80.61,234.33C80.49,233 79.56,231.81 78.21,231.97C76.93,232.12 75.97,233.49 76.09,234.75C76.2,236.05 77.46,236.92 78.78,236.77Z" style="fill:rgb(0,111,230);fill-rule:nonzero;"/>
                        <path d="M68.17,220.31C66.91,220.46 66.28,221.97 66.41,223.24C66.54,224.56 67.43,225.04 68.72,224.88C70.01,224.71 70.93,224.01 70.74,222.7C70.57,221.44 69.45,220.16 68.17,220.31Z" style="fill:rgb(0,111,230);fill-rule:nonzero;"/>
                        <path d="M73.9,189.13C75.24,188.98 76.4,187.61 76.23,186.28C76.07,185.02 74.62,184.01 73.37,184.14C72.1,184.28 71.54,185.6 71.71,186.87C71.88,188.13 72.64,189.27 73.9,189.13Z" style="fill:rgb(0,111,230);fill-rule:nonzero;"/>
                        <path d="M66.21,233.58C64.96,233.76 64.26,234.79 64.44,236.04C64.62,237.29 65.62,238.41 66.86,238.25C68.11,238.09 68.71,236.78 68.57,235.52C68.42,234.2 67.53,233.38 66.21,233.58Z" style="fill:rgb(0,111,230);fill-rule:nonzero;"/>
                        <path d="M80.94,222.12C81.04,223.36 82.19,224 83.44,223.91C84.69,223.81 85.64,223.01 85.54,221.76C85.44,220.47 84.36,219.13 83.07,219.25C81.74,219.37 80.84,220.85 80.94,222.12Z" style="fill:rgb(0,111,230);fill-rule:nonzero;"/>
                        <path d="M85.92,187.96C87.25,187.81 88.35,186.4 88.19,185.09C88.04,183.84 86.57,182.93 85.32,183.08C84.09,183.23 83.04,184.48 83.19,185.7C83.36,186.94 84.63,188.11 85.92,187.96Z" style="fill:rgb(0,111,230);fill-rule:nonzero;"/>
                        <path d="M81.05,199.85C82.34,199.7 83.07,199.02 82.92,197.75C82.77,196.48 81.87,195.85 80.62,195.99C79.38,196.14 78.35,197.01 78.49,198.23C78.63,199.48 79.8,200 81.05,199.85Z" style="fill:rgb(0,111,230);fill-rule:nonzero;"/>
                        <path d="M92.77,220.95C92.9,222.21 94.23,222.72 95.45,222.58C96.64,222.44 97.54,221.78 97.46,220.57C97.38,219.3 96.38,218.68 95.1,218.78C93.83,218.89 92.65,219.69 92.77,220.95Z" style="fill:rgb(0,111,230);fill-rule:nonzero;"/>
                        <path d="M85.53,209.63C85.66,210.87 87,211.76 88.24,211.65C89.56,211.53 90.27,210.45 90.13,209.12C89.99,207.83 89.11,206.62 87.82,206.74C86.49,206.86 85.39,208.31 85.53,209.63Z" style="fill:rgb(0,111,230);fill-rule:nonzero;"/>
                        <path d="M97.41,208.93C98.67,208.78 99.6,207.92 99.47,206.63C99.34,205.37 98.24,205.02 96.99,205.14C95.74,205.27 95.26,205.78 95.37,207.03C95.48,208.32 96.12,209.08 97.41,208.93Z" style="fill:rgb(0,111,230);fill-rule:nonzero;"/>
                        <path d="M92.96,198.54C94.26,198.43 94.98,197.83 94.83,196.52C94.69,195.26 93.82,194.05 92.53,194.18C91.24,194.32 90.5,195.69 90.63,196.97C90.76,198.24 91.72,198.65 92.96,198.54Z" style="fill:rgb(0,111,230);fill-rule:nonzero;"/>
                        <path d="M245.95,223.18C244.72,222.57 243.45,222.1 242.17,221.74C241.52,218.66 241.29,215.75 241.01,212.51C238.96,194.21 231.88,174.68 216.84,162.95C210.12,157.82 201.73,156.09 193.55,158.95C176.89,163.93 171.5,182.16 171.38,197.78C171.21,205.38 171.99,212.82 173.17,220.22C174.32,227.27 176.52,234.31 180.75,240.16C179.8,241.1 178.9,242.08 178.06,243.09C177.28,244.01 178.29,245.44 179.42,245.03C185.21,243.13 190.48,240.88 195.79,238.7C201.06,236.46 206.45,234.59 211.9,233.04C217.35,231.49 222.86,230.21 228.47,229.4C234.34,228.43 239.95,229.1 245.77,227.05C246.25,226.87 246.67,226.51 246.92,226.01C247.42,224.95 247,223.69 245.95,223.18ZM229.27,197.86C229.65,200.25 228.22,202.47 226.09,202.8C223.96,203.13 221.93,201.47 221.55,199.07C221.17,196.68 222.6,194.46 224.73,194.13C226.86,193.8 228.9,195.46 229.27,197.86ZM184.73,236.64C183.54,230.57 182.13,224.8 181.03,218.87C178.02,199.76 175.35,168.03 200.28,163.91C211.72,162.61 220.71,172.6 226.46,181.81C224.69,181.53 222.02,181.33 219.55,181.75C217.43,182.11 215.51,183.04 213.86,184.49C215.04,185.59 215.9,187.14 216.19,188.94C216.81,192.87 214.47,196.51 210.97,197.06C209.88,197.23 208.81,197.08 207.82,196.68C207.3,199.86 207.27,203.35 207.84,206.94C208.55,211.47 210.34,215.78 212.56,219.77C213.19,220.9 213.8,222.04 214.41,223.17C203.84,225.64 192.96,230.14 184.73,236.64Z" style="fill:rgb(0,111,230);fill-rule:nonzero;"/>
                        <path d="M191.66,145.12C195.62,143.77 199.77,143.56 203.85,143.24C211.51,141.76 209.75,130.67 202.03,131.61C183.15,133.85 166.81,146.59 157.94,163.1C156.11,166.8 161.26,169.86 163.62,166.46C164.68,164.84 166.03,163.08 167.34,161.56C171.89,156.23 177.43,151.65 183.58,148.4C186.08,147.12 188.97,145.84 191.66,145.12Z" style="fill:rgb(0,111,230);fill-rule:nonzero;"/>
                        <path d="M272.4,354.68C270.02,351.93 265.63,353.33 262.01,354.08C256.45,355.23 250.69,353.75 245.39,351.74C242.58,350.67 239.4,349.46 236.68,350.74C234.42,351.81 233.21,354.34 232.72,356.8C229.17,374.44 251.17,377.79 263.69,374.06C266.2,373.31 268.76,372.26 270.59,370.31C273.61,367.08 274.85,361.49 273.69,357.24C273.38,356.13 272.94,355.3 272.4,354.68Z" style="fill:rgb(0,111,230);fill-rule:nonzero;"/>
                    </g>
                </g>
            </g>
        </g>
    </g>
</svg>
